<?xml version="1.0" standalone="no"?>
<!DOCTYPE svg PUBLIC "-//W3C//DTD SVG 20010904//EN"
 "http://www.w3.org/TR/2001/REC-SVG-20010904/DTD/svg10.dtd">
<svg version="1.0" xmlns="http://www.w3.org/2000/svg"
 width="50.000000pt" height="50.000000pt" viewBox="0 0 50.000000 50.000000"
 preserveAspectRatio="xMidYMid meet">

<g transform="translate(0.000000,50.000000) scale(0.100000,-0.100000)"
fill="#000000" stroke="none">
<path d="M52 408 c-8 -8 -12 -54 -12 -140 0 -107 -2 -128 -15 -128 -20 0 -19
-24 1 -44 23 -24 425 -24 448 0 20 20 21 44 1 44 -13 0 -15 21 -15 128 0 86
-4 132 -12 140 -17 17 -379 17 -396 0z m383 -138 l0 -125 -185 0 -185 0 -3
114 c-1 63 0 121 2 128 4 11 43 13 188 11 l183 -3 0 -125z"/>
<path d="M220 270 l0 -100 30 0 30 0 0 100 0 100 -30 0 -30 0 0 -100z"/>
<path d="M300 250 l0 -80 30 0 30 0 0 80 0 80 -30 0 -30 0 0 -80z"/>
<path d="M140 225 c0 -54 0 -55 30 -55 30 0 30 1 30 55 0 54 0 55 -30 55 -30
0 -30 -1 -30 -55z"/>
</g>
</svg>
